<svg xmlns="http://www.w3.org/2000/svg" viewBox="0 0 340 120" width="340" height="120">
  <!-- Dark square background -->
  <rect x="0" y="0" width="120" height="120" rx="10" fill="#2a2a2a"/>
  
  <!-- BBB Torch/Flame icon (white) -->
  <!-- Left flame -->
  <path d="M38 18 C32 28, 28 40, 32 52 C28 46, 24 36, 28 24 C22 34, 20 48, 26 60 C20 52, 18 40, 22 28 C16 40, 18 56, 26 66 C24 58, 26 48, 32 42 C30 50, 32 60, 38 68 C44 60, 46 50, 44 42 C50 48, 52 58, 50 66 C58 56, 60 40, 54 28 C58 40, 56 52, 50 60 C56 48, 54 34, 48 24 C52 36, 48 46, 44 52 C48 40, 44 28, 38 18Z" fill="white"/>
  
  <!-- Torch handle/base -->
  <rect x="32" y="68" width="12" height="6" rx="1" fill="white"/>
  <rect x="28" y="74" width="20" height="4" rx="1" fill="white"/>
  
  <!-- BBB Text -->
  <text x="60" y="92" font-family="Arial Black, Arial, sans-serif" font-weight="900" font-size="28" fill="white" letter-spacing="2">BBB</text>
  
  <!-- Accredited Business text -->
  <text x="130" y="55" font-family="Arial Black, Arial, sans-serif" font-weight="900" font-size="26" fill="white" letter-spacing="-0.5">ACCREDITED</text>
  <text x="130" y="87" font-family="Arial Black, Arial, sans-serif" font-weight="900" font-size="26" fill="white" letter-spacing="-0.5">BUSINESS</text>
  
  <!-- Registered trademark -->
  <text x="328" y="95" font-family="Arial, sans-serif" font-size="10" fill="rgba(255,255,255,0.6)">®</text>
</svg>
